<?xml version="1.0" standalone="no"?>
<!DOCTYPE svg PUBLIC "-//W3C//DTD SVG 20010904//EN"
 "http://www.w3.org/TR/2001/REC-SVG-20010904/DTD/svg10.dtd">
<svg version="1.0" xmlns="http://www.w3.org/2000/svg"
 width="512.000000pt" height="512.000000pt" viewBox="0 0 512.000000 512.000000"
 preserveAspectRatio="xMidYMid meet">

<g transform="translate(0.000000,512.000000) scale(0.100000,-0.100000)"
fill="#000000" stroke="none">
<path d="M0 2560 l0 -2560 2560 0 2560 0 0 2560 0 2560 -2560 0 -2560 0 0
-2560z m1170 915 c0 -8 -12 -17 -27 -20 -55 -12 -92 -35 -110 -67 -17 -30 -18
-71 -18 -528 0 -467 1 -497 19 -526 23 -39 65 -64 105 -64 37 0 43 -25 9 -34
-13 -3 -132 -6 -265 -6 -236 0 -243 1 -243 20 0 13 7 20 20 20 39 0 90 29 110
62 19 32 20 49 20 526 0 544 1 533 -63 572 -18 11 -44 20 -59 20 -21 0 -28 5
-28 20 0 19 7 20 265 20 227 0 265 -2 265 -15z m995 -14 c190 -63 319 -171
404 -338 46 -92 62 -164 62 -280 -1 -122 -12 -173 -59 -273 -48 -102 -176
-232 -276 -280 -112 -53 -176 -59 -603 -60 -376 0 -383 0 -383 20 0 13 7 20
20 20 39 0 90 29 110 62 19 32 20 49 20 526 0 544 1 533 -63 572 -18 11 -44
20 -59 20 -22 0 -28 5 -28 21 0 20 1 20 393 17 378 -4 395 -5 462 -27z m813
12 c-2 -10 -14 -19 -28 -21 -79 -9 -111 -48 -93 -115 7 -23 81 -217 166 -432
142 -358 156 -388 166 -362 6 15 68 203 138 417 137 423 137 421 82 463 -15
10 -47 22 -73 24 -36 5 -46 9 -46 24 0 18 13 19 261 19 243 0 260 -1 257 -17
-2 -12 -16 -20 -43 -24 -70 -9 -105 -40 -105 -89 0 -32 322 -842 331 -833 14
14 279 816 279 844 0 38 -35 79 -69 79 -33 0 -42 7 -34 26 4 11 36 14 160 14
140 0 154 -2 151 -17 -2 -10 -17 -20 -37 -24 -42 -9 -79 -36 -109 -80 -13 -18
-105 -282 -205 -586 l-182 -553 -37 0 -36 0 -198 498 c-108 273 -200 500 -203
505 -7 7 -29 -58 -232 -685 l-103 -318 -37 0 -36 0 -61 148 c-33 81 -131 323
-217 537 -87 215 -166 406 -176 426 -23 46 -82 98 -120 106 -32 6 -44 17 -34
33 4 6 104 10 266 10 243 0 260 -1 257 -17z m730 -1381 c-20 -20 -76 -102
-123 -182 -48 -80 -97 -155 -108 -167 l-20 -22 29 -11 c46 -18 119 2 261 74
70 35 137 66 148 68 21 3 22 -2 9 -54 -9 -39 9 -37 110 13 98 47 104 53 160
151 38 67 85 112 102 96 16 -16 -11 -63 -75 -131 -82 -86 -97 -112 -80 -133 6
-8 17 -14 23 -14 18 0 118 51 139 71 28 26 67 33 85 15 13 -13 11 -17 -19 -35
-19 -12 -42 -21 -51 -21 -24 0 -23 -17 1 -30 29 -15 75 -12 131 9 27 11 50 15
50 11 0 -14 -107 -50 -147 -50 -37 0 -73 23 -73 47 0 15 -16 18 -25 4 -11 -18
-103 -43 -122 -33 -15 9 -23 1 -50 -47 -17 -31 -41 -65 -52 -75 -19 -17 -21
-17 -27 -2 -10 26 44 123 87 158 44 35 46 51 2 20 -43 -30 -172 -84 -184 -76
-6 3 -9 23 -7 44 4 46 13 48 -170 -44 -140 -71 -193 -82 -251 -52 -17 9 -32
11 -42 5 -22 -14 -65 -11 -79 6 -31 37 21 71 69 46 11 -6 26 -8 34 -5 20 7 83
98 146 211 67 120 129 199 144 184 8 -8 1 -21 -25 -49z m-2560 16 c26 -26 2
-85 -63 -158 -12 -14 -31 -38 -41 -55 -14 -23 -4 -17 43 26 85 78 179 139 214
139 16 0 29 -4 29 -9 0 -6 -34 -45 -75 -88 -76 -79 -132 -170 -121 -198 10
-26 75 -17 161 21 125 55 203 84 231 84 36 0 21 -17 -26 -30 -38 -10 -90 -63
-76 -77 6 -7 55 15 88 39 22 16 35 3 18 -17 -34 -40 40 -25 152 31 79 40 113
44 103 14 -8 -26 -5 -26 65 10 33 17 64 30 70 30 23 0 21 -31 -5 -62 -41 -48
-14 -48 84 1 86 44 128 53 117 25 -28 -73 -17 -79 72 -38 95 43 147 81 166
121 50 107 102 161 129 134 14 -14 -49 -106 -102 -149 -58 -46 -80 -122 -36
-122 21 0 115 47 140 70 26 24 66 33 85 20 13 -8 12 -12 -6 -31 -12 -11 -36
-24 -54 -28 -32 -6 -33 -7 -15 -25 27 -27 97 -17 186 27 69 35 109 46 109 31
0 -4 -8 -13 -17 -20 -17 -13 -17 -13 0 -14 9 0 26 -9 37 -20 l20 -20 63 33
c80 43 107 60 107 69 0 4 -10 9 -22 11 -20 4 -20 4 4 6 20 1 35 13 57 45 36
51 89 99 102 90 11 -7 6 -16 -39 -71 -38 -47 -33 -51 42 -28 27 8 51 13 54 11
12 -13 -16 -25 -81 -37 -79 -13 -111 -34 -133 -86 -8 -18 -14 -35 -14 -38 0
-10 48 -5 90 10 43 15 68 19 58 10 -12 -12 -143 -52 -156 -48 -13 6 -13 29 2
65 5 11 -16 4 -71 -25 -103 -54 -143 -68 -165 -56 -10 5 -18 16 -18 24 0 19
16 19 24 0 7 -20 29 -19 57 4 l24 19 -30 13 c-17 8 -33 18 -37 23 -4 6 -40 -6
-88 -28 -51 -24 -96 -39 -121 -39 -40 0 -69 16 -69 39 0 24 -16 23 -65 -1 -53
-27 -75 -31 -92 -14 -8 8 -23 -10 -55 -62 -48 -80 -68 -96 -68 -54 0 41 27 90
76 135 24 22 44 42 44 44 0 2 -40 -16 -88 -40 -49 -24 -99 -45 -113 -46 -22
-3 -24 0 -23 39 l1 42 -31 -13 c-17 -8 -61 -28 -98 -45 -36 -17 -73 -31 -82
-31 -24 0 -19 31 11 62 14 15 24 30 21 34 -8 7 -89 -28 -129 -57 -34 -24 -50
-18 -31 11 20 33 14 41 -20 26 -18 -8 -70 -31 -114 -50 -79 -35 -114 -38 -114
-11 0 9 -9 8 -36 -5 -20 -10 -42 -16 -50 -13 -19 7 -18 47 1 63 33 28 12 29
-42 2 -190 -95 -267 -104 -265 -32 1 40 36 98 111 184 34 38 59 71 56 74 -8 8
-90 -46 -146 -95 -57 -51 -153 -150 -190 -196 -14 -19 -25 -25 -31 -19 -7 7
28 62 101 162 110 151 133 192 114 211 -13 13 -106 -22 -169 -64 -72 -47 -195
-175 -228 -238 -30 -56 -64 -99 -78 -99 -17 0 -7 28 24 71 22 30 32 56 33 83
1 42 25 65 25 25 0 -19 16 -7 93 67 130 127 216 183 283 184 16 0 35 -5 42
-12z"/>
<path d="M1685 3419 c-4 -19 -5 -253 -3 -519 l3 -485 27 -47 c47 -79 153 -111
299 -89 98 15 172 52 239 120 169 172 209 497 91 736 -71 143 -162 225 -312
280 -62 23 -95 28 -206 33 l-132 5 -6 -34z"/>
<path d="M4228 2003 c-14 -16 -34 -41 -44 -58 l-18 -30 30 27 c26 24 71 88 61
88 -2 0 -15 -12 -29 -27z"/>
<path d="M4300 1845 c-10 -12 -10 -15 3 -15 8 0 20 7 27 15 10 12 10 15 -3 15
-8 0 -20 -7 -27 -15z"/>
<path d="M4036 1737 c-15 -19 -26 -40 -26 -47 0 -14 30 21 49 58 17 32 6 27
-23 -11z"/>
<path d="M3368 1723 c6 -2 18 -2 25 0 6 3 1 5 -13 5 -14 0 -19 -2 -12 -5z"/>
<path d="M2433 2007 c-11 -12 -30 -38 -43 -57 l-23 -35 37 35 c38 35 61 68 54
76 -3 2 -14 -6 -25 -19z"/>
<path d="M3065 1943 l-28 -38 34 32 c18 18 30 35 27 38 -3 3 -18 -11 -33 -32z"/>
<path d="M2504 1845 c-15 -11 -16 -14 -3 -15 8 0 24 7 35 15 15 11 16 14 3 15
-8 0 -24 -7 -35 -15z"/>
<path d="M2234 1731 c-35 -54 -25 -64 11 -11 15 22 25 43 22 46 -3 3 -18 -13
-33 -35z"/>
</g>
</svg>
